# xmcd CD database file
#
# Track frame offsets:
#	150
#	22560
#	42445
#	64992
#	86930
#	106797
#	128967
#	150190
#	169327
#	188975
#	206355
#	226557
#	243502
#	262562
#	282832
#
# Disc length: 4012 seconds
#
# Revision: 7
# Processed by: cddbd v1.5PL3 Copyright (c) Steve Scherf et al.
# Submitted via: CDex 1.51
#
DISCID=b70faa0f
DTITLE=那英 - 知英情歌精選
DYEAR=2001
DGENRE=Pop
TTITLE0=征服
TTITLE1=乾脆
TTITLE2=心酸的浪漫
TTITLE3=白絲線
TTITLE4=做我自己
TTITLE5=愛要有你才完美
TTITLE6=放愛一條生路
TTITLE7=夢醒了
TTITLE8=出賣
TTITLE9=夢一場
TTITLE10=不管有多苦
TTITLE11=願賭服輸
TTITLE12=最愛這一天
TTITLE13=偏心
TTITLE14=白天不懂夜的黑
EXTD=YEAR: 2001
EXTT0=
EXTT1=
EXTT2=
EXTT3=
EXTT4=
EXTT5=
EXTT6=
EXTT7=
EXTT8=
EXTT9=
EXTT10=
EXTT11=
EXTT12=
EXTT13=
EXTT14=
PLAYORDER=
